<?xml version="1.0" encoding="utf-8"?>
<!-- Generator: Adobe Illustrator 17.0.0, SVG Export Plug-In . SVG Version: 6.00 Build 0)  -->
<!DOCTYPE svg PUBLIC "-//W3C//DTD SVG 1.1//EN" "http://www.w3.org/Graphics/SVG/1.1/DTD/svg11.dtd">
<svg version="1.1" id="레이어_1" xmlns="http://www.w3.org/2000/svg" xmlns:xlink="http://www.w3.org/1999/xlink" x="0px"
	 y="0px" width="100px" height="100px" viewBox="0 0 100 100" enable-background="new 0 0 100 100" xml:space="preserve">
<g id="Captions">
</g>
<g id="Your_Icon">
	<path fill="#FFFFFF" d="M52.792,6.982V3.568V3.463c0-0.029-0.003-0.057-0.004-0.088V2.709c0-0.881-0.653-1.602-1.501-1.721
		C50.902,0.787,50.465,0.672,50,0.672s-0.901,0.115-1.287,0.316c-0.849,0.117-1.505,0.838-1.505,1.721v0.754v0.105v1.23v2.186
		C22.426,8.342,2.428,27.652,0,52.133h0.793c1.938-4.436,6.366-7.537,11.517-7.537c5.149,0,9.576,3.102,11.516,7.537h0.915h1.182
		c1.939-4.436,6.364-7.537,11.515-7.537c3.95,0,7.469,1.828,9.771,4.68V63.93v22.555v0.002c-0.007,4.008-3.251,7.252-7.259,7.26
		c-4.008-0.008-7.252-3.252-7.259-7.26c0-1.543-1.25-2.791-2.792-2.791c-1.541,0-2.792,1.248-2.792,2.791
		c0.002,7.094,5.749,12.84,12.843,12.842c7.091-0.002,12.835-5.742,12.842-12.832c0-0.002,0.001-0.006,0.001-0.01V63.93V49.275
		c2.303-2.852,5.821-4.68,9.771-4.68c5.15,0,9.575,3.102,11.515,7.537h1.547h0.549c1.938-4.436,6.366-7.537,11.516-7.537
		c5.154,0,9.58,3.102,11.518,7.537H100C97.571,27.652,77.574,8.342,52.792,6.982z"/>
</g>
</svg>
